HIERARCHY
ROOT Hips
{
	OFFSET 0.000000 87.230942 0.000000
	CHANNELS 6 Xposition Yposition Zposition Xrotation Yrotation Zrotation
	JOINT Pelvis
	{
		OFFSET 0.000000 0.000000 0.000000
		CHANNELS 3 Xrotation Yrotation Zrotation
		JOINT LeftUpLeg
		{
			OFFSET 12.017000 -9.376404 -2.439400
			CHANNELS 3 Xrotation Yrotation Zrotation
			JOINT LeftLeg
			{
				OFFSET -0.007312 -32.846973 2.110600
				CHANNELS 3 Xrotation Yrotation Zrotation
				JOINT LeftFoot
				{
					OFFSET 0.007312 -32.065170 -0.570400
					CHANNELS 3 Xrotation Yrotation Zrotation
					JOINT LeftToeBase
					{
						OFFSET 0.728300 -11.045900 13.180700
						CHANNELS 3 Xrotation Yrotation Zrotation
						End Site
						{
							OFFSET 0.000000 17.212589 0.000000
						}
					}
				}
				JOINT LeftPantLeg
				{
					OFFSET 0.002788 -16.709013 -3.143600
					CHANNELS 3 Xrotation Yrotation Zrotation
					End Site
					{
						OFFSET -0.605125 24.528742 0.000000
					}
				}
			}
			JOINT Left_Butt
			{
				OFFSET -6.630234 1.326584 -3.183700
				CHANNELS 3 Xrotation Yrotation Zrotation
				End Site
				{
					OFFSET -0.498041 20.188049 0.000000
				}
			}
		}
		JOINT RightUpLeg
		{
			OFFSET -11.717000 -9.376404 -2.439400
			CHANNELS 3 Xrotation Yrotation Zrotation
			JOINT RightLeg
			{
				OFFSET -0.003241 -32.846912 2.110600
				CHANNELS 3 Xrotation Yrotation Zrotation
				JOINT RightFoot
				{
					OFFSET 0.003241 -32.065136 -0.570500
					CHANNELS 3 Xrotation Yrotation Zrotation
					JOINT RightToeBase
					{
						OFFSET -0.728300 -11.045901 13.180700
						CHANNELS 3 Xrotation Yrotation Zrotation
						End Site
						{
							OFFSET 0.000000 17.212593 0.000000
						}
					}
				}
				JOINT RightPantLeg
				{
					OFFSET 0.008142 -16.708982 -3.143700
					CHANNELS 3 Xrotation Yrotation Zrotation
					End Site
					{
						OFFSET 0.605088 24.528715 0.000000
					}
				}
			}
			JOINT Right_Butt
			{
				OFFSET 6.630732 1.326584 -3.183700
				CHANNELS 3 Xrotation Yrotation Zrotation
				End Site
				{
					OFFSET 0.498015 20.188240 0.000000
				}
			}
		}
	}
	JOINT Spine
	{
		OFFSET -0.062400 7.848404 3.918300
		CHANNELS 3 Xrotation Yrotation Zrotation
		JOINT Spine1
		{
			OFFSET -0.072800 11.422302 0.713400
			CHANNELS 3 Xrotation Yrotation Zrotation
			JOINT Spine2
			{
				OFFSET -0.083200 13.054001 -1.931600
				CHANNELS 3 Xrotation Yrotation Zrotation
				JOINT Neck
				{
					OFFSET -0.092200 14.121796 -5.138800
					CHANNELS 3 Xrotation Yrotation Zrotation
					JOINT Head
					{
						OFFSET 0.000200 10.447403 -0.842000
						CHANNELS 3 Xrotation Yrotation Zrotation
						JOINT Visor
						{
							OFFSET 0.457100 25.671204 16.550400
							CHANNELS 3 Xrotation Yrotation Zrotation
							End Site
							{
								OFFSET 0.000000 26.061493 0.000000
							}
						}
						JOINT HairMidA
						{
							OFFSET 0.459400 31.585403 8.437400
							CHANNELS 3 Xrotation Yrotation Zrotation
							End Site
							{
								OFFSET 0.000000 26.061493 0.000000
							}
						}
						JOINT HairMidB
						{
							OFFSET 0.464000 33.309204 -8.389700
							CHANNELS 3 Xrotation Yrotation Zrotation
							End Site
							{
								OFFSET 0.000000 26.061493 0.000000
							}
						}
						JOINT HairMidC
						{
							OFFSET 0.466600 27.991196 -17.375099
							CHANNELS 3 Xrotation Yrotation Zrotation
							End Site
							{
								OFFSET 0.000000 26.061493 0.000000
							}
						}
						JOINT HairMidD
						{
							OFFSET 0.467700 17.888092 -21.169500
							CHANNELS 3 Xrotation Yrotation Zrotation
							End Site
							{
								OFFSET 0.000000 26.061493 0.000000
							}
						}
						JOINT HairMidE
						{
							OFFSET 5.325700 3.514603 -14.369699
							CHANNELS 3 Xrotation Yrotation Zrotation
							End Site
							{
								OFFSET 0.000000 26.061493 0.000000
							}
						}
						JOINT HairMidF
						{
							OFFSET -4.394100 3.514603 -14.372400
							CHANNELS 3 Xrotation Yrotation Zrotation
							End Site
							{
								OFFSET 0.000000 26.061493 0.000000
							}
						}
						JOINT HairLeftA
						{
							OFFSET 15.319900 25.746506 2.623300
							CHANNELS 3 Xrotation Yrotation Zrotation
							End Site
							{
								OFFSET 0.000000 26.061493 0.000000
							}
						}
						JOINT HairLeftB
						{
							OFFSET 12.619500 29.289398 -8.731499
							CHANNELS 3 Xrotation Yrotation Zrotation
							End Site
							{
								OFFSET 0.000000 26.061493 0.000000
							}
						}
						JOINT HairLeftC
						{
							OFFSET 15.714800 15.959900 2.909800
							CHANNELS 3 Xrotation Yrotation Zrotation
							End Site
							{
								OFFSET 0.000000 26.061493 0.000000
							}
						}
						JOINT HairLeftD
						{
							OFFSET 16.101700 18.437408 -7.553200
							CHANNELS 3 Xrotation Yrotation Zrotation
							End Site
							{
								OFFSET 0.000000 26.061493 0.000000
							}
						}
						JOINT HairLeftE
						{
							OFFSET 9.731900 17.915009 -18.316799
							CHANNELS 3 Xrotation Yrotation Zrotation
							End Site
							{
								OFFSET 0.000000 26.061493 0.000000
							}
						}
						JOINT HairLeftF
						{
							OFFSET 11.204300 4.953598 -9.668100
							CHANNELS 3 Xrotation Yrotation Zrotation
							End Site
							{
								OFFSET 0.000000 26.061493 0.000000
							}
						}
						JOINT HairRightA
						{
							OFFSET -14.397900 25.746307 2.615100
							CHANNELS 3 Xrotation Yrotation Zrotation
							End Site
							{
								OFFSET 0.000000 26.061493 0.000000
							}
						}
						JOINT HairRightB
						{
							OFFSET -11.691200 29.289200 -8.738199
							CHANNELS 3 Xrotation Yrotation Zrotation
							End Site
							{
								OFFSET 0.000000 26.061493 0.000000
							}
						}
						JOINT HairRightC
						{
							OFFSET -14.792900 15.959702 2.901400
							CHANNELS 3 Xrotation Yrotation Zrotation
							End Site
							{
								OFFSET 0.000000 26.061493 0.000000
							}
						}
						JOINT HairRightD
						{
							OFFSET -15.174000 18.437195 -7.561900
							CHANNELS 3 Xrotation Yrotation Zrotation
							End Site
							{
								OFFSET 0.000000 26.061493 0.000000
							}
						}
						JOINT HairRightE
						{
							OFFSET -8.798200 17.914902 -18.322001
							CHANNELS 3 Xrotation Yrotation Zrotation
							End Site
							{
								OFFSET 0.000000 26.061493 0.000000
							}
						}
						JOINT HairRightF
						{
							OFFSET -10.275200 4.953506 -9.674099
							CHANNELS 3 Xrotation Yrotation Zrotation
							End Site
							{
								OFFSET 0.000000 26.061493 0.000000
							}
						}
					}
				}
				JOINT LeftShoulder
				{
					OFFSET 5.133500 7.341202 -1.867600
					CHANNELS 3 Xrotation Yrotation Zrotation
					JOINT LeftArm
					{
						OFFSET 8.072663 0.936867 -2.176600
						CHANNELS 3 Xrotation Yrotation Zrotation
						JOINT LeftForeArm
						{
							OFFSET 31.271999 0.000000 0.000000
							CHANNELS 3 Xrotation Yrotation Zrotation
							JOINT LeftHand
							{
								OFFSET 31.771030 0.000000 0.000000
								CHANNELS 3 Xrotation Yrotation Zrotation
								JOINT LeftHandThumb1
								{
									OFFSET 2.886520 -2.557846 4.416640
									CHANNELS 3 Xrotation Yrotation Zrotation
									JOINT LeftHandThumb2
									{
										OFFSET 2.371025 -1.368912 1.368911
										CHANNELS 3 Xrotation Yrotation Zrotation
										JOINT LeftHandThumb3
										{
											OFFSET 2.243378 -1.295212 1.295213
											CHANNELS 3 Xrotation Yrotation Zrotation
											End Site
											{
												OFFSET -0.332611 2.876945 0.020015
											}
										}
									}
								}
								JOINT LeftHandIndex1
								{
									OFFSET 8.568985 -0.641945 3.119977
									CHANNELS 3 Xrotation Yrotation Zrotation
									JOINT LeftHandIndex2
									{
										OFFSET 3.348503 0.000000 0.000000
										CHANNELS 3 Xrotation Yrotation Zrotation
										JOINT LeftHandIndex3
										{
											OFFSET 3.314552 0.000000 0.000000
											CHANNELS 3 Xrotation Yrotation Zrotation
											End Site
											{
												OFFSET -1.032898 3.075485 0.678796
											}
										}
									}
								}
								JOINT LeftHandMiddle1
								{
									OFFSET 8.124603 0.000000 0.000000
									CHANNELS 3 Xrotation Yrotation Zrotation
									JOINT LeftHandMiddle2
									{
										OFFSET 4.166275 0.000000 0.000000
										CHANNELS 3 Xrotation Yrotation Zrotation
										JOINT LeftHandMiddle3
										{
											OFFSET 3.018135 0.000000 0.000000
											CHANNELS 3 Xrotation Yrotation Zrotation
											End Site
											{
												OFFSET -1.032700 2.767982 0.617226
											}
										}
									}
								}
								JOINT LeftHandRing1
								{
									OFFSET 8.571686 -0.031357 -2.884048
									CHANNELS 3 Xrotation Yrotation Zrotation
									JOINT LeftHandRing2
									{
										OFFSET 3.671181 0.000000 0.000000
										CHANNELS 3 Xrotation Yrotation Zrotation
										JOINT LeftHandRing3
										{
											OFFSET 2.728851 0.000000 0.000000
											CHANNELS 3 Xrotation Yrotation Zrotation
											End Site
											{
												OFFSET -0.815796 2.539223 0.577389
											}
										}
									}
								}
								JOINT LeftHandPinky1
								{
									OFFSET 7.854515 -0.675232 -5.213020
									CHANNELS 3 Xrotation Yrotation Zrotation
									JOINT LeftHandPinky2
									{
										OFFSET 3.068596 0.000000 0.000000
										CHANNELS 3 Xrotation Yrotation Zrotation
										JOINT LeftHandPinky3
										{
											OFFSET 2.396042 0.000000 0.000000
											CHANNELS 3 Xrotation Yrotation Zrotation
											End Site
											{
												OFFSET -0.524597 2.267998 0.567429
											}
										}
									}
								}
							}
							JOINT LeftSleeve
							{
								OFFSET 19.684509 -0.200119 0.476146
								CHANNELS 3 Xrotation Yrotation Zrotation
								End Site
								{
									OFFSET -0.031017 25.731133 -0.002868
								}
							}
						}
					}
				}
				JOINT RightShoulder
				{
					OFFSET -4.395900 7.341202 -1.870200
					CHANNELS 3 Xrotation Yrotation Zrotation
					JOINT RightArm
					{
						OFFSET -8.071453 0.936867 -2.181100
						CHANNELS 3 Xrotation Yrotation Zrotation
						JOINT RightForeArm
						{
							OFFSET -31.272011 0.000000 0.000000
							CHANNELS 3 Xrotation Yrotation Zrotation
							JOINT RightHand
							{
								OFFSET -31.771019 0.000000 0.000000
								CHANNELS 3 Xrotation Yrotation Zrotation
								JOINT RightHandThumb1
								{
									OFFSET -2.886520 -2.557808 4.416626
									CHANNELS 3 Xrotation Yrotation Zrotation
									JOINT RightHandThumb2
									{
										OFFSET -2.371056 -1.368927 1.368928
										CHANNELS 3 Xrotation Yrotation Zrotation
										JOINT RightHandThumb3
										{
											OFFSET -2.243362 -1.295204 1.295206
											CHANNELS 3 Xrotation Yrotation Zrotation
											End Site
											{
												OFFSET 0.332642 2.876938 0.020047
											}
										}
									}
								}
								JOINT RightHandIndex1
								{
									OFFSET -8.568993 -0.641953 3.120017
									CHANNELS 3 Xrotation Yrotation Zrotation
									JOINT RightHandIndex2
									{
										OFFSET -3.348518 0.000000 0.000000
										CHANNELS 3 Xrotation Yrotation Zrotation
										JOINT RightHandIndex3
										{
											OFFSET -3.314552 0.000000 0.000000
											CHANNELS 3 Xrotation Yrotation Zrotation
											End Site
											{
												OFFSET 1.032898 3.075478 0.678804
											}
										}
									}
								}
								JOINT RightHandMiddle1
								{
									OFFSET -8.124588 0.000000 0.000000
									CHANNELS 3 Xrotation Yrotation Zrotation
									JOINT RightHandMiddle2
									{
										OFFSET -4.166275 0.000000 0.000000
										CHANNELS 3 Xrotation Yrotation Zrotation
										JOINT RightHandMiddle3
										{
											OFFSET -3.018097 0.000000 0.000000
											CHANNELS 3 Xrotation Yrotation Zrotation
											End Site
											{
												OFFSET 1.032700 2.767937 0.617197
											}
										}
									}
								}
								JOINT RightHandRing1
								{
									OFFSET -8.571747 -0.031349 -2.884061
									CHANNELS 3 Xrotation Yrotation Zrotation
									JOINT RightHandRing2
									{
										OFFSET -3.671204 0.000000 0.000000
										CHANNELS 3 Xrotation Yrotation Zrotation
										JOINT RightHandRing3
										{
											OFFSET -2.728874 0.000000 0.000000
											CHANNELS 3 Xrotation Yrotation Zrotation
											End Site
											{
												OFFSET 0.815804 2.539261 0.577413
											}
										}
									}
								}
								JOINT RightHandPinky1
								{
									OFFSET -7.854561 -0.675247 -5.212970
									CHANNELS 3 Xrotation Yrotation Zrotation
									JOINT RightHandPinky2
									{
										OFFSET -3.068550 0.000000 0.000000
										CHANNELS 3 Xrotation Yrotation Zrotation
										JOINT RightHandPinky3
										{
											OFFSET -2.395981 0.000000 0.000000
											CHANNELS 3 Xrotation Yrotation Zrotation
											End Site
											{
												OFFSET 0.524605 2.267952 0.567413
											}
										}
									}
								}
							}
							JOINT RightSleeve
							{
								OFFSET -19.684753 -0.200165 0.476065
								CHANNELS 3 Xrotation Yrotation Zrotation
								End Site
								{
									OFFSET 0.031342 25.731255 -0.002917
								}
							}
						}
					}
				}
				JOINT Hood
				{
					OFFSET 0.369700 14.447800 -5.317800
					CHANNELS 3 Xrotation Yrotation Zrotation
					JOINT Hood1
					{
						OFFSET 0.001700 -5.553802 -5.895100
						CHANNELS 3 Xrotation Yrotation Zrotation
						JOINT Hood2
						{
							OFFSET -0.000200 -8.380501 0.763600
							CHANNELS 3 Xrotation Yrotation Zrotation
							End Site
							{
								OFFSET 0.000000 8.415215 0.000000
							}
						}
					}
				}
				JOINT Left_Breast
				{
					OFFSET 5.682500 3.120102 3.188800
					CHANNELS 3 Xrotation Yrotation Zrotation
					End Site
					{
						OFFSET 0.000000 10.528564 0.000000
					}
				}
				JOINT Right_Breast
				{
					OFFSET -4.947600 3.120102 3.185900
					CHANNELS 3 Xrotation Yrotation Zrotation
					End Site
					{
						OFFSET 0.000000 10.528564 0.000000
					}
				}
				JOINT Whistle
				{
					OFFSET 0.368200 11.471298 0.095400
					CHANNELS 3 Xrotation Yrotation Zrotation
					JOINT Whistle1
					{
						OFFSET -0.002000 -6.349899 7.479800
						CHANNELS 3 Xrotation Yrotation Zrotation
						JOINT Whistle2
						{
							OFFSET -0.001300 -8.217598 4.717600
							CHANNELS 3 Xrotation Yrotation Zrotation
							End Site
							{
								OFFSET 0.000000 9.475479 0.000000
							}
						}
					}
				}
			}
		}
		JOINT Belly
		{
			OFFSET 0.212400 1.593002 3.163700
			CHANNELS 3 Xrotation Yrotation Zrotation
			End Site
			{
				OFFSET 0.000000 7.496635 0.000000
			}
		}
	}
	JOINT FitGrandmaFacialAnim_Joint
	{
		OFFSET 1.150000 -86.211197 -1.220100
		CHANNELS 3 Xrotation Yrotation Zrotation
		End Site
		{
			OFFSET 0.000000 31.666618 0.000000
		}
	}
}
MOTION
Frames: 4
Frame Time: 0.016667
-2.596038 73.169418 1.969007 11.676243 -49.425943 11.279136 0.000001 0.000001 -0.000000 -62.309903 28.878115 43.416835 47.636680 -21.391514 3.308674 -2.466211 1.388738 -10.658863 0.000000 0.000000 -0.000000 -0.000000 -0.000000 0.000001 -0.000003 0.000001 -0.000001 -29.833628 -1.493317 -26.649656 55.567055 3.695476 -6.881560 -32.972858 -4.594178 25.476920 -0.000000 0.000000 0.000000 0.000001 -0.000003 0.000003 0.000001 -0.000000 -0.000001 10.972951 2.772281 -2.041637 6.100696 5.566533 -4.284682 -5.786916 6.328144 -3.046187 2.318316 9.363373 -0.265397 -4.146500 23.161916 -3.523234 -0.000001 -0.000000 -0.000000 -0.000001 -0.000000 -0.000000 -0.000001 -0.000000 -0.000000 -0.000001 -0.000000 -0.000000 -0.000001 -0.000000 -0.000000 -0.000001 -0.000000 -0.000000 -0.000001 -0.000000 -0.000000 -0.000001 -0.000000 -0.000000 -0.000001 -0.000000 -0.000000 -0.000001 -0.000000 -0.000000 -0.000001 -0.000000 -0.000000 -0.000001 -0.000000 -0.000000 -0.000001 -0.000000 -0.000000 -0.000001 -0.000000 -0.000000 -0.000001 -0.000000 -0.000000 -0.000001 -0.000000 -0.000000 -0.000001 -0.000000 -0.000000 -0.000001 -0.000000 -0.000000 -0.000001 -0.000000 -0.000000 -1.875336 -16.181777 -2.870478 -10.644668 2.164776 -45.510595 -22.862402 -25.786273 -15.871766 2.491055 -2.511847 6.860517 18.457963 -9.513822 13.216591 -1.150199 11.255338 -8.400836 0.000005 0.000002 -0.000000 -1.232799 -5.771931 -0.192345 0.133935 -0.197645 -4.602133 0.000001 -0.000000 0.000002 1.884736 4.663372 -4.597421 0.476672 -1.009853 -12.986429 0.000000 -0.000002 0.000004 3.024607 7.938950 -14.103484 -0.708005 -0.566214 -18.895717 0.000002 -0.000002 0.000002 2.010385 6.305961 -22.386532 -0.815403 -0.210775 -16.746488 0.000001 0.000003 0.000002 0.000001 -0.000002 0.000000 -5.074615 24.343749 1.482674 6.642361 -34.733745 57.610419 -21.032012 44.833830 19.961684 -0.087209 35.608495 7.474261 55.149526 18.649558 -29.698267 -0.442555 -14.180557 7.313151 -0.000001 -0.000000 -0.000001 5.673388 7.585023 36.844144 1.050492 3.824508 68.900237 -0.000002 -0.000003 0.000001 -0.125723 1.886085 45.000787 -1.168975 3.204700 68.417650 0.000000 -0.000002 0.000001 -5.311992 1.216634 58.508787 -0.745214 1.667568 48.011275 0.000002 -0.000001 -0.000001 -7.756827 -9.376452 47.263994 -0.526038 1.541588 45.600542 -0.000005 0.000002 -0.000002 -0.000000 0.000001 -0.000000 0.000002 -0.000001 0.000001 0.000002 -0.000001 0.000001 0.000002 -0.000001 0.000001 0.000002 -0.000001 0.000001 0.000002 -0.000001 0.000001 0.000002 -0.000001 0.000001 -0.000001 -0.000001 0.000001 -0.000001 -0.000001 0.000001 0.000001 -0.000000 0.000000 0.000001 0.000001 -0.000000 
-2.560111 73.185852 2.005014 11.197745 -51.044203 10.919984 -0.000000 0.000001 0.000000 -61.107933 28.552612 44.164618 48.266601 -21.529217 3.387880 -3.671622 1.795197 -11.381578 0.000000 -0.000000 0.000000 -0.000000 0.000002 -0.000000 0.000000 -0.000001 0.000001 -29.988786 -1.130130 -26.557883 55.542299 4.582411 -6.854114 -32.722579 -3.851944 25.137398 0.000000 -0.000002 -0.000000 -0.000001 -0.000004 0.000002 0.000002 0.000002 0.000000 10.991215 2.781349 -2.033098 6.138155 5.594450 -4.285144 -5.748716 6.468378 -2.981400 2.489926 9.336457 -0.252153 -3.932297 23.122429 -3.588222 -0.000000 -0.000000 -0.000001 -0.000000 -0.000000 -0.000001 -0.000000 -0.000000 -0.000001 -0.000000 -0.000000 -0.000001 -0.000000 -0.000000 -0.000001 -0.000000 -0.000000 -0.000001 -0.000000 -0.000000 -0.000001 -0.000000 -0.000000 -0.000001 -0.000000 -0.000000 -0.000001 -0.000000 -0.000000 -0.000001 -0.000000 -0.000000 -0.000001 -0.000000 -0.000000 -0.000001 -0.000000 -0.000000 -0.000001 -0.000000 -0.000000 -0.000001 -0.000000 -0.000000 -0.000001 -0.000000 -0.000000 -0.000001 -0.000000 -0.000000 -0.000001 -0.000000 -0.000000 -0.000001 -0.000000 -0.000000 -0.000001 -1.831972 -15.691467 -2.734870 -10.284162 1.988973 -45.432827 -22.867639 -26.152782 -16.049804 2.735574 -2.483701 6.839560 18.499209 -9.524864 13.108590 -1.077104 11.351625 -8.411995 0.000004 -0.000002 0.000002 -1.131489 -5.650985 -0.728747 0.094700 -0.195230 -5.161585 0.000003 0.000002 0.000001 1.871905 4.626707 -5.322336 0.428601 -1.020171 -13.712003 -0.000002 -0.000002 0.000005 2.961943 7.871839 -14.814776 -0.750705 -0.567330 -19.622505 0.000001 -0.000005 0.000003 1.926221 6.257276 -23.049051 -0.855990 -0.211692 -17.424868 -0.000001 0.000002 0.000002 0.000001 0.000002 -0.000001 -5.284791 25.012604 1.987642 5.891134 -33.544172 56.610377 -21.351964 45.089842 20.683957 2.377821 34.175989 4.612019 55.149529 18.649553 -29.698270 -0.442556 -14.180559 7.313154 -0.000001 -0.000003 -0.000001 5.673390 7.585022 36.844144 1.050492 3.824506 68.900237 0.000000 -0.000001 0.000005 -0.125717 1.886087 45.000773 -1.168976 3.204698 68.417643 0.000001 -0.000000 0.000000 -5.311985 1.216636 58.508787 -0.745213 1.667573 48.011285 0.000003 0.000000 0.000001 -7.756823 -9.376448 47.263994 -0.526038 1.541597 45.600542 0.000001 0.000004 -0.000006 -0.000004 -0.000001 0.000001 0.000000 0.000001 -0.000000 0.000000 0.000001 -0.000000 0.000000 0.000001 -0.000000 0.000000 0.000001 -0.000000 0.000000 0.000001 -0.000000 0.000000 0.000001 -0.000000 0.000000 0.000001 0.000000 0.000000 0.000001 0.000000 0.000000 0.000001 -0.000000 -0.000000 0.000001 0.000000 
-2.570921 73.210869 2.031646 10.655880 -52.586091 10.542364 0.000000 -0.000000 0.000000 -59.756956 27.760563 44.123063 50.042235 -20.658204 3.658800 -5.428074 2.715232 -10.645562 -0.000000 -0.000003 0.000000 0.000000 -0.000003 0.000001 -0.000001 -0.000001 0.000001 -29.862680 -0.440459 -26.233831 55.504313 5.102337 -6.925776 -32.540831 -3.426085 24.979358 0.000000 0.000000 -0.000000 -0.000002 -0.000005 0.000003 0.000002 -0.000001 -0.000001 11.042668 2.788355 -2.009830 6.244013 5.671773 -4.285780 -5.640077 6.608165 -2.917741 2.645279 9.260207 -0.213891 -3.676955 23.009499 -3.772379 0.000001 0.000000 -0.000000 0.000001 0.000000 -0.000000 0.000001 0.000000 -0.000000 0.000001 0.000000 -0.000000 0.000001 0.000000 -0.000000 0.000001 0.000000 -0.000000 0.000001 0.000000 -0.000000 0.000001 0.000000 -0.000000 0.000001 0.000000 -0.000000 0.000001 0.000000 -0.000000 0.000001 0.000000 -0.000000 0.000001 0.000000 -0.000000 0.000001 0.000000 -0.000000 0.000001 0.000000 -0.000000 0.000001 0.000000 -0.000000 0.000001 0.000000 -0.000000 0.000001 0.000000 -0.000000 0.000001 0.000000 -0.000000 0.000001 0.000000 -0.000000 -1.772851 -15.071256 -2.573299 -9.648129 1.878005 -45.209275 -22.751862 -26.556762 -16.251520 3.425989 -2.405854 6.778293 18.614354 -9.555907 12.806421 -0.869295 11.618025 -8.438094 0.000002 -0.000003 0.000002 -0.835810 -5.325755 -2.231411 -0.013376 -0.184476 -6.726218 0.000001 -0.000003 0.000003 1.834810 4.529838 -7.349809 0.295687 -1.043537 -15.741546 0.000001 0.000000 0.000001 2.782686 7.699101 -16.805742 -0.868378 -0.565327 -21.655157 0.000004 0.000000 0.000004 1.688311 6.136105 -24.903420 -0.968012 -0.209445 -19.322211 0.000002 0.000000 -0.000001 0.000002 0.000004 0.000000 -5.414783 24.900588 2.343739 4.830024 -31.450453 55.681649 -21.606728 44.967418 21.111013 4.968139 32.756006 1.699193 55.149533 18.649548 -29.698267 -0.442555 -14.180559 7.313153 0.000001 -0.000001 -0.000000 5.673392 7.585022 36.844144 1.050492 3.824507 68.900237 -0.000003 -0.000001 -0.000001 -0.125720 1.886089 45.000780 -1.168975 3.204699 68.417650 -0.000003 0.000000 -0.000003 -5.311985 1.216634 58.508787 -0.745215 1.667567 48.011285 0.000003 -0.000001 0.000002 -7.756828 -9.376453 47.263994 -0.526040 1.541591 45.600542 0.000000 -0.000000 -0.000002 -0.000004 -0.000002 0.000003 -0.000001 0.000002 0.000000 -0.000001 0.000002 0.000000 -0.000001 0.000002 0.000000 -0.000001 0.000002 0.000000 -0.000001 0.000002 0.000000 -0.000001 0.000002 0.000000 -0.000002 -0.000002 -0.000000 -0.000002 -0.000002 -0.000000 0.000001 -0.000003 0.000002 0.000000 -0.000000 0.000000 
-2.608382 73.223862 2.075457 10.057203 -54.076834 10.134931 0.000000 0.000001 0.000000 -58.452253 26.382717 43.574373 52.740030 -19.096830 4.053381 -7.275713 4.027349 -9.760444 0.000000 -0.000000 -0.000000 -0.000001 0.000003 0.000001 0.000004 0.000001 -0.000001 -29.512619 0.543872 -25.745773 55.474872 5.331933 -7.077599 -32.438583 -3.270332 24.996010 0.000000 0.000002 0.000000 -0.000003 -0.000001 0.000001 -0.000001 -0.000001 0.000001 11.122709 2.796859 -1.969454 6.408570 5.788701 -4.285501 -5.470573 6.747034 -2.854227 2.788231 9.140429 -0.154533 -3.388276 22.831775 -4.057899 0.000003 -0.000000 0.000000 0.000003 -0.000000 0.000000 0.000003 -0.000000 0.000000 0.000003 -0.000000 0.000000 0.000003 -0.000000 0.000000 0.000003 -0.000000 0.000000 0.000003 -0.000000 0.000000 0.000003 -0.000000 0.000000 0.000003 -0.000000 0.000000 0.000003 -0.000000 0.000000 0.000003 -0.000000 0.000000 0.000003 -0.000000 0.000000 0.000003 -0.000000 0.000000 0.000003 -0.000000 0.000000 0.000003 -0.000000 0.000000 0.000003 -0.000000 0.000000 0.000003 -0.000000 0.000000 0.000003 -0.000000 0.000000 0.000003 -0.000000 0.000000 -1.680932 -14.154099 -2.352877 -8.774228 1.650366 -44.932102 -22.530371 -26.999714 -16.467771 4.497324 -2.288670 6.678754 18.789961 -9.604265 12.342671 -0.550075 12.026285 -8.480250 -0.000000 0.000003 -0.000002 -0.348417 -4.866016 -4.542047 -0.174149 -0.156910 -9.125354 -0.000001 -0.000001 0.000000 1.775574 4.397503 -10.459154 0.097249 -1.063976 -18.853817 -0.000003 -0.000003 0.000002 2.498689 7.477373 -19.862540 -1.042450 -0.547695 -24.771933 -0.000000 -0.000001 0.000000 1.318456 5.993302 -27.751363 -1.134453 -0.192162 -22.231453 0.000004 0.000001 -0.000002 0.000003 0.000002 -0.000001 -5.461415 25.266482 2.495340 3.915314 -29.781541 55.120006 -21.873957 44.541986 21.371821 7.589041 31.575671 -1.256839 55.149536 18.649557 -29.698267 -0.442555 -14.180563 7.313153 -0.000001 -0.000001 -0.000001 5.673390 7.585022 36.844144 1.050490 3.824508 68.900237 0.000002 0.000001 -0.000000 -0.125721 1.886085 45.000773 -1.168972 3.204699 68.417650 0.000001 0.000000 0.000000 -5.311984 1.216631 58.508780 -0.745214 1.667569 48.011285 0.000003 -0.000001 0.000001 -7.756826 -9.376451 47.263994 -0.526038 1.541592 45.600539 0.000004 -0.000001 0.000002 0.000001 -0.000002 0.000003 0.000002 0.000002 -0.000000 0.000002 0.000002 -0.000000 0.000002 0.000002 -0.000000 0.000002 0.000002 -0.000000 0.000002 0.000002 -0.000000 0.000002 0.000002 -0.000000 0.000001 -0.000002 0.000000 0.000001 -0.000002 0.000000 -0.000000 0.000002 0.000001 0.000000 0.000001 0.000000 
